<svg xmlns="http://www.w3.org/2000/svg" fill="none" viewBox="0 0 40 40"><circle cx="20" cy="20" r="20" fill="#F36" opacity=".1"/><g fill="#F36" stroke="#F36" stroke-width=".2" clip-path="url(#a)"><path d="M27.6 13.25c0-.728-.6-1.316-1.494-1.716-.901-.403-2.135-.634-3.481-.634s-2.58.23-3.48.634c-.895.4-1.495.988-1.495 1.716s.6 1.316 1.494 1.716c.901.403 2.135.634 3.48.634 1.347 0 2.58-.23 3.482-.634.894-.4 1.494-.988 1.494-1.716Zm-9 0c0-.142.089-.303.286-.47.196-.165.485-.325.85-.463.731-.278 1.75-.467 2.889-.467 1.139 0 2.158.189 2.889.466.365.14.654.299.85.464.197.167.286.328.286.47 0 .142-.088.303-.286.47-.196.165-.485.325-.85.463-.731.278-1.75.467-2.89.467-1.138 0-2.157-.189-2.888-.466-.366-.14-.654-.299-.85-.464-.197-.167-.286-.328-.286-.47Z"/><path d="M27.6 13.25v-.1h-.95v2.35c0 .142-.088.303-.286.47-.196.165-.485.325-.85.463-.731.278-1.75.467-2.89.467-1.138 0-2.157-.189-2.888-.466-.366-.14-.654-.299-.85-.464-.197-.167-.286-.328-.286-.47v-2.35h-.95v2.35c0 .728.6 1.316 1.494 1.716.901.403 2.135.634 3.48.634 1.347 0 2.58-.23 3.482-.634.894-.4 1.494-.988 1.494-1.716v-2.25Z"/><path d="M17.65 17.757v.082l.08.016.008.002h.009c.256.009.506.028.746.055l.128.014-.017-.127a.36.36 0 0 1-.004-.049V15.4h-.95v2.357Zm3.85 2.188.005.1c.36.036.735.055 1.12.055 1.346 0 2.58-.23 3.48-.634.895-.4 1.495-.988 1.495-1.716V15.4h-.95v2.35c0 .142-.088.303-.286.47-.196.165-.485.325-.85.463-.731.278-1.75.467-2.89.467-.388 0-.762-.022-1.117-.062l-.128-.015.017.127a.367.367 0 0 1 .004.05c0 .064.005.32.015.698l.086-.003Z"/><path d="m21.47 22.152-.162.124.255.024c.343.033.698.05 1.062.05 1.346 0 2.58-.23 3.48-.634.895-.4 1.495-.988 1.495-1.716v-2.35h-.95V20c0 .142-.089.303-.286.47-.196.165-.485.325-.85.464-.731.277-1.75.466-2.89.466-.367 0-.723-.02-1.06-.056l-.114-.012.003.114.005.23.013.476ZM18.6 17.75v-.1h-.95V17.854l.097.003c.255.01.503.028.742.054l.007-.06h.004v-.04h.1v-.06Z"/><path d="M22.35 20c0-.728-.6-1.316-1.494-1.716-.901-.403-2.135-.634-3.48-.634-1.347 0-2.581.23-3.482.634-.894.4-1.494.988-1.494 1.716s.6 1.316 1.494 1.716c.901.403 2.135.634 3.481.634s2.58-.23 3.48-.634c.895-.4 1.495-.988 1.495-1.716Zm-9 0c0-.142.088-.303.286-.47.196-.165.485-.325.85-.463.731-.278 1.75-.467 2.89-.467 1.138 0 2.157.189 2.888.466.366.14.654.299.85.464.197.167.286.328.286.47 0 .142-.089.303-.286.47-.196.165-.485.325-.85.463-.731.278-1.75.467-2.889.467-1.139 0-2.158-.189-2.889-.466-.365-.14-.654-.299-.85-.464-.197-.167-.286-.328-.286-.47Z"/><path d="M22.35 20v-.1h-.95v2.35c0 .142-.089.303-.286.47-.196.165-.485.325-.85.463-.731.278-1.75.467-2.889.467-1.139 0-2.158-.189-2.889-.466-.365-.14-.654-.299-.85-.464-.197-.167-.286-.328-.286-.47V19.9h-.95v2.35c0 .728.6 1.316 1.494 1.716.901.403 2.135.634 3.481.634s2.58-.23 3.48-.634c.895-.4 1.495-.988 1.495-1.716V20Z"/><path d="M22.35 22.25v-.1h-.95v2.35c0 .142-.089.303-.286.47-.196.165-.485.325-.85.463-.731.278-1.75.467-2.889.467-1.139 0-2.158-.189-2.889-.466-.365-.14-.654-.299-.85-.464-.197-.167-.286-.328-.286-.47v-2.35h-.95v2.35c0 .728.6 1.316 1.494 1.716.901.403 2.135.634 3.481.634s2.58-.23 3.48-.634c.895-.4 1.495-.988 1.495-1.716v-2.25Z"/><path d="M22.35 24.5v-.1h-.95v2.35c0 .142-.089.303-.286.47-.196.165-.485.325-.85.463-.731.278-1.75.467-2.889.467-1.139 0-2.158-.189-2.889-.466-.365-.14-.654-.299-.85-.464-.197-.167-.286-.328-.286-.47V24.4h-.95v2.35c0 .728.6 1.316 1.494 1.716.901.403 2.135.634 3.481.634s2.58-.23 3.48-.634c.895-.4 1.495-.988 1.495-1.716V24.5Z"/><path d="m21.54 24.496.024.055.06.005c.324.03.658.044 1 .044 1.347 0 2.581-.23 3.482-.634.894-.4 1.494-.988 1.494-1.716V19.9h-.95v2.35c0 .142-.088.303-.286.47-.195.165-.485.325-.85.463-.731.278-1.75.467-2.89.467-.346 0-.682-.018-1.002-.05l-.112-.01.002.112.013.501.007.256v.02l.008.017Z"/><path d="m21.599 26.746.021.06.065.006c.304.024.62.038.94.038 1.346 0 2.58-.23 3.48-.634.895-.4 1.495-.988 1.495-1.716v-2.35h-.95v2.35c0 .142-.089.303-.286.47-.196.165-.485.325-.85.463-.731.278-1.75.467-2.89.467-.325 0-.64-.016-.942-.044l-.112-.01.003.112c.005.19.01.352.012.48l.008.277v.016l.006.015Z"/></g><defs><clipPath id="a"><path fill="#fff" d="M0 0h18v18H0z" transform="translate(11 11)"/></clipPath></defs></svg>