<svg xmlns="http://www.w3.org/2000/svg" fill="none" viewBox="0 0 16 16"><g fill="#213F7D" clip-path="url(#a)"><path d="M5.625 13.85H3A3.053 3.053 0 0 1 .879 13 2.853 2.853 0 0 1 0 10.95V5.146c0-.769.316-1.507.879-2.05A3.053 3.053 0 0 1 3 2.246h2.625c.1 0 .195.038.265.106s.11.16.11.256v1.209c0 .096-.04.188-.11.256a.382.382 0 0 1-.265.106H3c-.265 0-.52.102-.707.284A.951.951 0 0 0 2 5.147v5.802c0 .257.105.503.293.684.187.181.442.283.707.283h2.625c.1 0 .195.038.265.106s.11.16.11.257v1.209c0 .096-.04.188-.11.256a.382.382 0 0 1-.265.106Z" opacity=".4"/><path d="m11.031 2.98 4.747 4.552a.724.724 0 0 1 .222.515.703.703 0 0 1-.222.515l-4.75 4.557a.766.766 0 0 1-.53.21.766.766 0 0 1-.53-.213l-.684-.662a.726.726 0 0 1-.218-.53.708.708 0 0 1 .243-.518l2.425-2.149H5.75a.77.77 0 0 1-.53-.212.722.722 0 0 1-.22-.513v-.967a.703.703 0 0 1 .22-.514.75.75 0 0 1 .53-.211h5.984L9.31 4.69a.727.727 0 0 1-.24-.518.704.704 0 0 1 .218-.527l.685-.662a.763.763 0 0 1 .529-.213c.199-.001.39.075.53.21Z"/></g><defs><clipPath id="a"><path fill="#fff" d="M0 0h16v15.472H0z" transform="translate(0 .313)"/></clipPath></defs></svg>