<svg xmlns="http://www.w3.org/2000/svg" fill="none" viewBox="0 0 16 16"><g fill="#213F7D" clip-path="url(#a)"><path d="M8 2C4.687 2 2 4.688 2 8c0 3.313 2.688 6 6 6 3.313 0 6-2.688 6-6 0-3.313-2.688-6-6-6Zm0 1.5a4.48 4.48 0 0 1 2.002.469L8.788 5.64a2.304 2.304 0 0 0-1.576 0L5.997 3.969A4.48 4.48 0 0 1 8 3.5ZM3.547 8.656A4.54 4.54 0 0 1 3.5 8a4.469 4.469 0 0 1 1.285-3.148l1.211 1.666c-.32.428-.495.948-.496 1.482l.002.023-1.954.633Zm3.703 3.781a4.518 4.518 0 0 1-3.24-2.352l1.959-.636c.315.439.765.763 1.281.924v2.065ZM8 9a1 1 0 1 1 0-2 1 1 0 0 1 0 2Zm3.182 2.182a4.465 4.465 0 0 1-2.432 1.255v-2.064a2.493 2.493 0 0 0 1.281-.924l1.959.636a4.506 4.506 0 0 1-.808 1.097Zm-.684-3.16L10.5 8a2.478 2.478 0 0 0-.496-1.482l1.21-1.666A4.469 4.469 0 0 1 12.5 8c0 .22-.016.44-.047.658l-1.955-.635Z" opacity=".4"/><path d="M8 7a1 1 0 1 0 0 2 1 1 0 0 0 0-2Zm0-7a8 8 0 1 0 0 16A8 8 0 0 0 8 0Zm0 14c-3.308 0-6-2.692-6-6s2.692-6 6-6 6 2.692 6 6-2.692 6-6 6Z"/></g><defs><clipPath id="a"><path fill="#fff" d="M0 0h16v16H0z"/></clipPath></defs></svg>