<svg fill="none" xmlns="http://www.w3.org/2000/svg" viewBox="0 0 25 26"><path fill-rule="evenodd" clip-rule="evenodd" d="M0 1.665c0-.552.443-1 .99-1h2.97c.547 0 .99.448.99 1v18.003c0 .553.443 1 .99 1h12.87c.547 0 .99-.447.99-1v-3c0-.553-.443-1-.99-1h-5.94c-1.64 0-2.97-1.344-2.97-3V3.665c0-1.657 1.33-3 2.97-3h8.91c1.64 0 2.97 1.343 2.97 3v19.003c0 1.657-1.33 3-2.97 3H2.97c-1.64 0-2.97-1.343-2.97-3V1.665Zm19.8 5.001c0-.552-.443-1-.99-1h-3.96v4c0 .553.443 1 .99 1h3.96v-4Z" fill="url(#a)"/><defs><linearGradient id="a" x1="0" y1="37.921" x2="26.253" y2="-5.224" gradientUnits="userSpaceOnUse"><stop stop-color="#213F7D"/><stop offset="1" stop-color="#39CDCC"/></linearGradient></defs></svg>